<svg xmlns="http://www.w3.org/2000/svg" viewBox="0 0 386.612 386.612"><path d="M323.918 75.755l-25.078 285.78c-.522 5.224-5.224 9.404-10.449 9.404H98.22c-5.224 0-9.927-4.18-10.449-9.404L62.694 75.755h261.224z" fill="#3c3c63"/><path d="M360.49 60.082h-83.592v-33.96C276.898 11.494 265.404 0 250.776 0H135.837c-14.629 0-26.122 11.494-26.122 26.122v33.959H26.122c-8.882 0-15.673 6.792-15.673 15.673s6.792 15.673 15.673 15.673h22.465L72.62 363.102c1.567 13.061 12.539 23.51 26.122 23.51h190.171c13.061 0 24.555-10.449 26.122-23.51l24.033-271.673h21.42c8.882 0 15.673-6.792 15.673-15.673s-6.79-15.674-15.671-15.674zM141.061 31.347h104.49v28.735h-104.49V31.347zM283.69 355.265H102.922L79.935 91.429H307.2l-23.51 263.836z" fill="#ddd"/></svg>